HIERARCHY
ROOT Hips
{
  OFFSET 0 89.5177 0.535
  CHANNELS 6 Xposition Yposition Zposition Zrotation Xrotation Yrotation
  JOINT Spine
  {
    OFFSET 12.0259 -0.162855 1.69034e-005
    CHANNELS 3 Zrotation Xrotation Yrotation
    JOINT Spine1
    {
      OFFSET 15.3169 -0.0121922 0
      CHANNELS 3 Zrotation Xrotation Yrotation
      JOINT Spine2
      {
        OFFSET 15.3176 -0.0121908 0
        CHANNELS 3 Zrotation Xrotation Yrotation
        JOINT Neck
        {
          OFFSET 19.9142 1.56338 0
          CHANNELS 3 Zrotation Xrotation Yrotation
          JOINT Head
          {
            OFFSET 6.92651 0 0
            CHANNELS 3 Zrotation Xrotation Yrotation
            End Site
            {
              OFFSET 20.7666 0 0
            }
          }
          JOINT LeftShoulder
          {
            OFFSET -6.20654 0.708824 7.28219
            CHANNELS 3 Zrotation Xrotation Yrotation
            JOINT LeftArm
            {
              OFFSET 14.108 0 -1.52588e-005
              CHANNELS 3 Zrotation Xrotation Yrotation
              JOINT LeftForeArm
              {
                OFFSET 28.5802 0 0
                CHANNELS 3 Zrotation Xrotation Yrotation
                JOINT LeftHand
                {
                  OFFSET 27.092 0 0
                  CHANNELS 3 Zrotation Xrotation Yrotation
                  End Site
                  {
                    OFFSET 9.55928 -0.186424 0.145352
                  }
                }
              }
            }
          }
          JOINT RightShoulder
          {
            OFFSET -6.20654 0.708866 -7.28218
            CHANNELS 3 Zrotation Xrotation Yrotation
            JOINT RightArm
            {
              OFFSET 14.108 0 1.52588e-005
              CHANNELS 3 Zrotation Xrotation Yrotation
              JOINT RightForeArm
              {
                OFFSET 28.5802 0 0
                CHANNELS 3 Zrotation Xrotation Yrotation
                JOINT RightHand
                {
                  OFFSET 27.092 0 0
                  CHANNELS 3 Zrotation Xrotation Yrotation
                  End Site
                  {
                    OFFSET 9.55929 -0.186417 -0.145354
                  }
                }
              }
            }
          }
        }
      }
    }
  }
  JOINT LeftUpLeg
  {
    OFFSET 0.005 -0.535 8.837
    CHANNELS 3 Zrotation Xrotation Yrotation
    JOINT LeftLeg
    {
      OFFSET 39.9035 0 0
      CHANNELS 3 Zrotation Xrotation Yrotation
      JOINT LeftFoot
      {
        OFFSET 39.6689 0 0
        CHANNELS 3 Zrotation Xrotation Yrotation
        JOINT LeftToe
        {
          OFFSET 10.1624 13.6296 0
          CHANNELS 3 Zrotation Xrotation Yrotation
          End Site
          {
            OFFSET 8.38147 0 0
          }
        }
      }
    }
  }
  JOINT RightUpLeg
  {
    OFFSET 0.005 -0.535 -8.837
    CHANNELS 3 Zrotation Xrotation Yrotation
    JOINT RightLeg
    {
      OFFSET 39.9035 0 0
      CHANNELS 3 Zrotation Xrotation Yrotation
      JOINT RightFoot
      {
        OFFSET 39.6689 0 0
        CHANNELS 3 Zrotation Xrotation Yrotation
        JOINT RightToe
        {
          OFFSET 10.1624 13.6296 0
          CHANNELS 3 Zrotation Xrotation Yrotation
          End Site
          {
            OFFSET 8.38147 0 0
          }
        }
      }
    }
  }
}
MOTION
Frames:	6
Frame Time:	0.0333333
539.444 86.1788 -212.466 131.296 -79.6387 40.1254 -1.27729 -0.491868 -0.632888 -2.56006 -0.969012 -1.27647 -2.56006 -0.969012 -1.27648 -8.30744e-012 -9.0191e-006 -5.27751e-005 9.36115 5.06432 -4.07035 178.401 -15.7184 -95.8819 -31.7429 -46.1615 -8.45934 -5.16911e-006 6.36111e-015 -3.97569e-016 -45.2913 -28.2756 -38.106 178.651 6.48 101.784 78.354 67.895 -84.701 -1.19511 7.95139e-016 -0 -34.1498 13.6671 21.8302 -18.0288 0.338916 -176.017 -31.6987 -3.18055e-015 3.97569e-016 20.7637 5.23872 -3.1558 90 1.55926e-020 3.18055e-015 -19.3043 -7.12921 -178.176 -31.4128 0 7.45443e-016 18.7731 -3.2588 -2.62906 90 1.30333e-020 -1.59028e-015 
539.423 86.1538 -212.66 132.241 -79.8246 41.0714 -1.27959 -0.463341 -0.627533 -2.56429 -0.912061 -1.26513 -2.56429 -0.912061 -1.26514 -8.30758e-012 -9.0191e-006 -5.27751e-005 9.42131 4.90795 -3.93898 178.391 -15.7343 -95.9146 -31.8507 -46.4276 -8.38963 -5.19548e-006 3.18055e-015 3.97569e-016 -45.3244 -28.2273 -37.9731 178.672 6.40178 101.743 77.2439 67.7673 -83.6852 -1.41027 -3.97569e-016 -0 -33.9152 13.9203 22.0238 -17.8976 0.7514 -175.902 -31.7404 1.59028e-015 -0 20.9587 5.41924 -3.17955 90 -1.09006e-020 -2.38542e-015 -19.2317 -6.95571 -178.119 -31.4913 -1.98785e-016 -1.49089e-016 18.9232 -3.26773 -2.62561 90 -1.05807e-020 1.59028e-015 
539.387 86.133 -212.839 132.597 -79.8788 41.4114 -1.27547 -0.470168 -0.635695 -2.56356 -0.925535 -1.28161 -2.56356 -0.925535 -1.28161 -8.30758e-012 -9.0191e-006 -5.27751e-005 9.50655 4.85859 -3.7798 178.379 -15.8476 -95.9159 -32.2784 -46.7157 -8.56889 -5.22274e-006 -6.36111e-015 -3.97569e-016 -45.4251 -28.1858 -38.0298 178.668 6.44609 101.7 76.4648 67.6842 -83.1484 -1.42481 0 2.38542e-015 -33.5101 14.191 22.1023 -17.7737 0.723829 -175.893 -31.7774 -3.18055e-015 -1.19271e-015 21.1252 5.33376 -3.17614 90 1.86732e-020 7.95139e-016 -19.132 -6.72324 -178.063 -31.5402 3.97569e-016 -3.97569e-016 19.0837 -3.14177 -2.59721 90 -2.08533e-020 7.95139e-016 
539.34 86.1179 -213.023 132.605 -79.8731 41.3531 -1.26775 -0.490281 -0.629779 -2.54884 -0.965971 -1.27017 -2.54884 -0.965971 -1.27018 -8.30746e-012 -9.0191e-006 -5.27751e-005 9.60467 4.70804 -3.83364 178.364 -15.8589 -95.9658 -32.3872 -47.0743 -8.55174 -5.25091e-006 0 7.95139e-016 -45.465 -28.0351 -38.0973 178.656 6.51609 101.679 76.8203 67.7161 -83.6757 -1.36649 -3.97569e-016 -1.59028e-015 -33.1378 14.261 22.0398 -17.6403 0.502536 -175.893 -31.8209 0 3.97569e-016 21.2923 5.14282 -3.1551 90 -1.09954e-020 -7.95139e-016 -18.9717 -6.69965 -178.003 -31.5143 7.95139e-016 1.98785e-016 19.2184 -3.08605 -2.56892 90 9.95273e-021 -7.95139e-016 
539.29 86.1053 -213.198 132.784 -79.8992 41.5009 -1.26343 -0.500602 -0.609327 -2.53226 -0.987155 -1.22943 -2.53226 -0.987155 -1.22944 -8.30749e-012 -9.0191e-006 -5.27751e-005 9.60394 4.64134 -4.07977 178.435 -15.7623 -95.7415 -32.4553 -47.0121 -8.75412 -5.28e-006 0 1.59028e-015 -45.4276 -27.9448 -37.9632 178.545 7.14795 101.539 82.9066 69.1641 -90.8425 -3.98814e-006 2.98177e-016 -0 -39.3831 16.9801 26.145 -17.5155 0.525068 -175.88 -31.8352 0 -1.19271e-015 21.4353 5.12269 -3.13317 90 4.50243e-021 -0 -18.847 -6.65294 -177.979 -31.5093 3.97569e-016 -2.98177e-016 19.3419 -3.06408 -2.5359 90 -1.86732e-020 2.38542e-015 
539.234 86.0905 -213.371 133.006 -79.9568 41.7049 -1.26562 -0.496829 -0.625082 -2.53672 -0.979236 -1.26087 -2.53672 -0.979236 -1.26088 -8.30752e-012 -9.0191e-006 -5.27751e-005 9.73232 4.7045 -4.13025 178.359 -15.6024 -96.0786 -32.1246 -47.3832 -8.33613 -5.31003e-006 -3.18055e-015 -0 -45.3977 -27.8008 -37.8569 178.667 6.46687 101.671 76.4759 67.6443 -83.4011 -1.54773 -1.19271e-015 7.95139e-016 -32.5127 14.1624 21.89 -17.3831 0.697939 -175.839 -31.8506 0 1.19271e-015 21.5815 5.22454 -3.12211 90 -1.81993e-020 -0 -18.7207 -6.52942 -177.959 -31.5265 1.98785e-016 -3.97569e-016 19.4756 -3.02444 -2.494 90 6.06643e-021 7.95139e-016 
